<svg xmlns="http://www.w3.org/2000/svg" viewBox="0 0 1531.09 151.04">
  <title>Sin título-2</title>
  <path d="M-596.64,22.09h-57.11a3.16,3.16,0,0,0-3.16,3.16V46.68a3.16,3.16,0,0,0,3.16,3.16h26A3.16,3.16,0,0,1-624.56,53V69a3.1,3.1,0,0,1-1.37,2.6c-7.92,5.21-17.84,7.82-28.88,7.82-25.87,0-44.23-19.61-44.23-46.31,0-25.24,18.57-45.9,41.93-45.9,15.69,0,25.45,4.68,35.78,12.86a3.16,3.16,0,0,0,4.39-.46l16.22-19.57a3.17,3.17,0,0,0-.46-4.49c-14.49-11.63-30-18-54.88-18-44.23,0-76.56,34-76.56,75.52,0,43.6,31.29,75.52,76.77,75.52,26,0,46.32-9.92,61.24-22.21A3.15,3.15,0,0,0-593.48,84V25.25A3.16,3.16,0,0,0-596.64,22.09Z" transform="translate(732.63 42.37)" style="fill: #391e7c"/>
  <path d="M-427.45,77h-66.49a3.16,3.16,0,0,1-3.16-3.16V-36.71a3.16,3.16,0,0,0-3.16-3.16h-25.81a3.16,3.16,0,0,0-3.16,3.16V103a3.16,3.16,0,0,0,3.16,3.16h98.62A3.16,3.16,0,0,0-424.3,103V80.12A3.16,3.16,0,0,0-427.45,77Z" transform="translate(732.63 42.37)" style="fill: #391e7c"/>
  <path d="M-295.38-42.37c-45.06,0-77.81,34-77.81,75.52,0,41.93,32.34,75.52,77.4,75.52S-218,74.66-218,33.15C-218-8.78-250.31-42.37-295.38-42.37Zm0,121.42c-25.87,0-44.23-20.86-44.23-45.9,0-25.45,17.94-45.9,43.81-45.9s44.23,20.86,44.23,45.9C-251.57,58.6-269.51,79-295.38,79Z" transform="translate(732.63 42.37)" style="fill: #391e7c"/>
  <path d="M-53.86,32.09a3.16,3.16,0,0,1-.44-5.42C-46.17,20.79-40,12.11-40-1.69c0-10.43-3.34-18.57-10-25.24-8.34-8.34-21.49-12.93-38.18-12.93h-64.64A3.16,3.16,0,0,0-156-36.71V103a3.16,3.16,0,0,0,3.16,3.16h66.31c33,0,54.66-13.35,54.66-40.05C-31.9,48.3-40.15,38.58-53.86,32.09ZM-124.73-8.55a3.16,3.16,0,0,1,3.16-3.16H-93C-79.46-11.7-72-6.28-72,3.32c0,11.27-9,15.85-23.16,15.85h-26.47A3.16,3.16,0,0,1-124.73,16ZM-86.55,78h-35a3.16,3.16,0,0,1-3.16-3.16V49a3.16,3.16,0,0,1,3.16-3.16h34c16.48,0,23.78,6,23.78,15.85C-63.82,73-72.37,78-86.55,78Z" transform="translate(732.63 42.37)" style="fill: #391e7c"/>
  <path d="M151.55-39.87h-29a3.16,3.16,0,0,0-2.7,1.52L88.06,14.25a3.16,3.16,0,0,1-5.41,0L51.42-38.32a3.16,3.16,0,0,0-2.71-1.54h-30A3.16,3.16,0,0,0,16-35L68.58,47.81a3.16,3.16,0,0,1,.49,1.69V103a3.16,3.16,0,0,0,3.16,3.16H98a3.16,3.16,0,0,0,3.16-3.16V48.88a3.16,3.16,0,0,1,.5-1.7L154.21-35A3.16,3.16,0,0,0,151.55-39.87Z" transform="translate(732.63 42.37)" style="fill: #391e7c"/>
  <path d="M318.12-39.87H203.44a3.16,3.16,0,0,0-3.16,3.16V-13.4a3.16,3.16,0,0,0,3.16,3.16h38.12a3.16,3.16,0,0,1,3.16,3.16V103a3.16,3.16,0,0,0,3.16,3.16h25.81a3.16,3.16,0,0,0,3.16-3.16V-7.09A3.16,3.16,0,0,1,280-10.24h38.12a3.16,3.16,0,0,0,3.16-3.16V-36.71A3.16,3.16,0,0,0,318.12-39.87Z" transform="translate(732.63 42.37)" style="fill: #391e7c"/>
  <path d="M487.31,77.59h-73a3.16,3.16,0,0,1-3.16-3.16V50.08a3.16,3.16,0,0,1,3.16-3.16h62.53A3.16,3.16,0,0,0,480,43.76V21.49a3.16,3.16,0,0,0-3.16-3.16H414.35a3.16,3.16,0,0,1-3.16-3.16V-8.13a3.16,3.16,0,0,1,3.16-3.16h71.92a3.16,3.16,0,0,0,3.16-3.16V-36.71a3.16,3.16,0,0,0-3.16-3.16H382.43a3.16,3.16,0,0,0-3.16,3.16V103a3.16,3.16,0,0,0,3.16,3.16H487.31a3.16,3.16,0,0,0,3.16-3.16V80.74A3.16,3.16,0,0,0,487.31,77.59Z" transform="translate(732.63 42.37)" style="fill: #391e7c"/>
  <path d="M662.38,64.19A3.15,3.15,0,0,0,658,64C647.41,73.23,637.47,79,621.89,79c-25,0-42.35-20.86-42.35-45.9,0-25.45,17.73-45.9,42.35-45.9,15.51,0,24.9,5.23,35.19,14.17a3.16,3.16,0,0,0,4.45-.31l15.14-17.44a3.17,3.17,0,0,0-.22-4.38C663.39-33,648.17-42.37,622.1-42.37c-44.85,0-76.15,34-76.15,75.52,0,42.35,31.92,75.52,74.89,75.52,26.85,0,43.27-8,57.76-22.63a3.17,3.17,0,0,0,.07-4.39Z" transform="translate(732.63 42.37)" style="fill: #391e7c"/>
  <rect x="1454.98" y="119.96" width="76.12" height="28.58" rx="3.75" ry="3.75" style="fill: #3af2c9"/>
</svg>
